# xmcd CD database file
#
# Track frame offsets:
#	150
#	10762
#	22725
#	35700
#	46575
#	58612
#	69900
#	80700
#	92287
#	105375
#	117375
#	127537
#	138300
#	147112
#
# Disc length: 2140 seconds
#
# Revision: 4
# Processed by: cddbd v1.5.2PL0 Copyright (c) Steve Scherf et al.
# Submitted via: CDex 1.70beta2
#
DISCID=a1085a0e
DTITLE=Johnny Adams, 1932-1998 - I Won't Cry (rec. 1959-1963)
DYEAR=1991
DGENRE=Blues
TTITLE0=I Won't Cry
TTITLE1=Life Is A Struggle
TTITLE2=A Losing Battle
TTITLE3=Nowhere To Go
TTITLE4=Oh So Nice
TTITLE5=I Want To Do Everything For You
TTITLE6=You Can Make It If You Try
TTITLE7=Teach Me To Forget
TTITLE8=Let The Winds Blow
TTITLE9=I Solemnly Promise
TTITLE10=Who Are You
TTITLE11=Come On
TTITLE12=Someone For Me
TTITLE13=Lonely Drifter
EXTD=Rounder CD 2083\n\nOriginal recordings produced by Mac Rebennack, Joe Ruffino and Eddie Bo.  Reissue produced by Jeff Hannusch.  \n\nAll tracks except "Losing Battle" and "Life Is A Struggle" are digital transfers from the original studio tapes. YEA
EXTD=R: 1991
EXTT0=
EXTT1=
EXTT2=
EXTT3=
EXTT4=
EXTT5=
EXTT6=
EXTT7=
EXTT8=
EXTT9=
EXTT10=
EXTT11=
EXTT12=
EXTT13=
PLAYORDER=
